<svg xmlns="http://www.w3.org/2000/svg" viewBox="0 0 40 30">
  <rect width="40" height="30" fill="#DE2910"/>
  <path d="M5,5 L8,15 L2,9 L10,9 L4,15 Z" fill="#FFDE00"/>
  <g fill="#FFDE00">
    <path d="M15,4 L15.5,5.5 L17,5.5 L16,6.5 L16.5,8 L15,7 L13.5,8 L14,6.5 L13,5.5 L14.5,5.5 Z"/>
    <path d="M18,6 L18.5,7.5 L20,7.5 L19,8.5 L19.5,10 L18,9 L16.5,10 L17,8.5 L16,7.5 L17.5,7.5 Z"/>
    <path d="M15,11 L15.5,12.5 L17,12.5 L16,13.5 L16.5,15 L15,14 L13.5,15 L14,13.5 L13,12.5 L14.5,12.5 Z"/>
    <path d="M12,8 L12.5,9.5 L14,9.5 L13,10.5 L13.5,12 L12,11 L10.5,12 L11,10.5 L10,9.5 L11.5,9.5 Z"/>
  </g>
</svg>