<svg xmlns="http://www.w3.org/2000/svg" viewBox="0 0 40 30">
  <rect width="40" height="30" fill="#B22234"/>
  <path d="M0,3.5h40 M0,7h40 M0,10.5h40 M0,14h40 M0,17.5h40 M0,21h40 M0,24.5h40 M0,28h40" stroke="#FFFFFF" stroke-width="2"/>
  <rect width="20" height="16" fill="#3C3B6E"/>
  <g fill="#FFFFFF">
    <g id="stars">
      <g id="star-row">
        <path d="M2,3 L2.5,4.5 L4,4.5 L3,5.5 L3.5,7 L2,6 L0.5,7 L1,5.5 L0,4.5 L1.5,4.5 Z"/>
        <path d="M6,3 L6.5,4.5 L8,4.5 L7,5.5 L7.5,7 L6,6 L4.5,7 L5,5.5 L4,4.5 L5.5,4.5 Z"/>
        <path d="M10,3 L10.5,4.5 L12,4.5 L11,5.5 L11.5,7 L10,6 L8.5,7 L9,5.5 L8,4.5 L9.5,4.5 Z"/>
        <path d="M14,3 L14.5,4.5 L16,4.5 L15,5.5 L15.5,7 L14,6 L12.5,7 L13,5.5 L12,4.5 L13.5,4.5 Z"/>
        <path d="M18,3 L18.5,4.5 L20,4.5 L19,5.5 L19.5,7 L18,6 L16.5,7 L17,5.5 L16,4.5 L17.5,4.5 Z"/>
      </g>
      <use href="#star-row" y="4"/>
      <use href="#star-row" y="8"/>
    </g>
    <g>
      <path d="M4,11 L4.5,12.5 L6,12.5 L5,13.5 L5.5,15 L4,14 L2.5,15 L3,13.5 L2,12.5 L3.5,12.5 Z"/>
      <path d="M8,11 L8.5,12.5 L10,12.5 L9,13.5 L9.5,15 L8,14 L6.5,15 L7,13.5 L6,12.5 L7.5,12.5 Z"/>
      <path d="M12,11 L12.5,12.5 L14,12.5 L13,13.5 L13.5,15 L12,14 L10.5,15 L11,13.5 L10,12.5 L11.5,12.5 Z"/>
      <path d="M16,11 L16.5,12.5 L18,12.5 L17,13.5 L17.5,15 L16,14 L14.5,15 L15,13.5 L14,12.5 L15.5,12.5 Z"/>
    </g>
  </g>
</svg>